<svg width="69" height="69" viewBox="0 0 69 69" fill="none" xmlns="http://www.w3.org/2000/svg">
<path fill-rule="evenodd" clip-rule="evenodd" d="M34.5 69C53.5538 69 69 53.5538 69 34.5C69 15.4462 53.5538 0 34.5 0C15.4462 0 0 15.4462 0 34.5C0 53.5538 15.4462 69 34.5 69Z" fill="#F04037" fill-opacity="0.1"/>
<path d="M36.3467 21.8934L44.2133 25.3867C46.48 26.3867 46.48 28.0401 44.2133 29.0401L36.3467 32.5334C35.4533 32.9334 33.9867 32.9334 33.0933 32.5334L25.2267 29.0401C22.96 28.0401 22.96 26.3867 25.2267 25.3867L33.0933 21.8934C33.9867 21.4934 35.4533 21.4934 36.3467 21.8934Z" stroke="#F04037" stroke-width="2" stroke-linecap="round" stroke-linejoin="round"/>
<path d="M23 32.6666C23 33.7866 23.84 35.08 24.8667 35.5333L33.92 39.56C34.6133 39.8666 35.4 39.8666 36.08 39.56L45.1333 35.5333C46.16 35.08 47 33.7866 47 32.6666" stroke="#F04037" stroke-width="2" stroke-linecap="round" stroke-linejoin="round"/>
<path d="M23 39.3334C23 40.5734 23.7333 41.6934 24.8667 42.2L33.92 46.2267C34.6133 46.5334 35.4 46.5334 36.08 46.2267L45.1333 42.2C46.2667 41.6934 47 40.5734 47 39.3334" stroke="#F04037" stroke-width="2" stroke-linecap="round" stroke-linejoin="round"/>
</svg>
