<svg width="50" height="50" viewBox="0 0 50 50" fill="none" xmlns="http://www.w3.org/2000/svg">
<path d="M25 8.33325C26.1506 8.33325 27.0833 9.26599 27.0833 10.4166V22.9166H39.5833C40.7339 22.9166 41.6667 23.8493 41.6667 24.9999C41.6667 26.1505 40.7339 27.0833 39.5833 27.0833H27.0833V39.5833C27.0833 40.7339 26.1506 41.6666 25 41.6666C23.8494 41.6666 22.9167 40.7339 22.9167 39.5833V27.0833H10.4167C9.26608 27.0833 8.33334 26.1505 8.33334 24.9999C8.33334 23.8493 9.26608 22.9166 10.4167 22.9166H22.9167V10.4166C22.9167 9.26599 23.8494 8.33325 25 8.33325Z" fill="#E7E7E7"/>
</svg>
